# xmcd
#
# Track frame offsets: 
#        150
#        16600
#        28950
#        39362
#        48237
#        75200
#        85587
#        104425
#        114312
#        128800
#        142837
#        156250
#        168650
#        182612
#        193700
#        202925
#        221087
#        228225
#        240437
#        242362
#        252412
#        264362
#        285250
#        296887
#
# Disc length: 4269 seconds
#
# Revision: 0
# Processed by: cddbd v1.5.2PL0 Copyright (c) Steve Scherf et al.
# Submitted via: ExactAudioCopy v0.95b3
#
DISCID=3610ab18
DTITLE=The Beatles  - Real Stereo Album - Disc 1  FLAC
DYEAR=1900
DGENRE=
TTITLE0=Maxwell's Silver Hammer
TTITLE1=Yes It Is
TTITLE2=This Boy
TTITLE3=Bring Me No More Blues
TTITLE4=Teddy Boy
TTITLE5=Because
TTITLE6=Strawberry Fields Forever
TTITLE7=I'll Cry Instead
TTITLE8=I'm Looking Through You
TTITLE9=She's A Woman
TTITLE10=Mark I (Tomorrow Never Knows)
TTITLE11=ObLaDi-ObLaDa
TTITLE12=Rain
TTITLE13=Paperback Writer
TTITLE14=Norwegian Wood
TTITLE15=All You Need Is Love
TTITLE16=Twist And Shout
TTITLE17=You Can't Do That
TTITLE18=All My Loving
TTITLE19=All My Loving
TTITLE20=The Inner Light
TTITLE21=I Am The Walrus
TTITLE22=We Can Work It Out
TTITLE23=A Day In The Life
EXTD=
EXTT0=
EXTT1=
EXTT2=
EXTT3=
EXTT4=
EXTT5=
EXTT6=
EXTT7=
EXTT8=
EXTT9=
EXTT10=
EXTT11=
EXTT12=
EXTT13=
EXTT14=
EXTT15=
EXTT16=
EXTT17=
EXTT18=
EXTT19=
EXTT20=
EXTT21=
EXTT22=
EXTT23=
PLAYORDER=
